<svg version="1.1" id="Layer_1" xmlns="http://www.w3.org/2000/svg" xmlns:xlink="http://www.w3.org/1999/xlink" x="0px" y="0px"
	 width="100%" viewBox="0 0 512 512" enable-background="new 0 0 512 512" xml:space="preserve">
<path fill="#000000" opacity="1.000000" stroke="none" 
	d="
M1.000000,109.468658 
	C3.536281,107.581055 2.673918,103.931549 5.569808,102.473129 
	C7.543030,102.586441 8.527572,104.533333 9.868698,105.869011 
	C23.555620,119.500496 36.855103,133.541122 50.917614,146.771454 
	C87.419678,181.113403 121.910568,217.469681 157.715973,252.503189 
	C161.387604,256.095673 161.166946,258.029572 157.608719,261.557434 
	C124.377815,294.504791 91.627022,327.941101 58.130543,360.613831 
	C41.333698,376.997589 24.674122,393.505127 8.155152,410.162384 
	C7.473323,410.849884 6.617952,411.365295 5.870225,411.940277 
	C3.040606,410.447601 3.374102,407.210571 1.299320,405.156311 
	C1.000000,306.645782 1.000000,208.291550 1.000000,109.468658 
z"/>
<path fill="#000000" opacity="1.000000" stroke="none" 
	d="
M513.000000,402.531342 
	C511.055511,405.635284 511.625763,409.594086 508.531738,411.633209 
	C506.561188,411.117004 505.503845,409.525665 504.228394,408.251282 
	C490.673767,394.708069 477.461365,380.803986 463.540497,367.649261 
	C427.089355,333.204346 392.531830,296.861633 356.733429,261.766174 
	C351.929901,257.056946 351.967651,257.030334 356.812836,252.187714 
	C389.573944,219.444016 421.992462,186.347305 455.232422,154.097198 
	C472.317566,137.520798 489.077698,120.630547 506.049316,103.947922 
	C506.750214,103.258942 507.515991,102.635918 508.322479,101.919075 
	C511.104034,104.620331 511.528381,108.166222 512.849365,111.681549 
	C513.000000,208.687561 513.000000,305.375122 513.000000,402.531342 
z"/>
<path fill="#000000" opacity="1.000000" stroke="none" 
	d="
M409.000061,76.656860 
	C430.330322,76.657631 451.160522,76.666817 471.990753,76.654045 
	C477.614990,76.650597 482.719238,78.356506 487.575134,80.926147 
	C487.636108,83.381081 485.759552,84.241455 484.557037,85.445984 
	C441.235291,128.840988 398.252350,172.584122 354.369629,215.405029 
	C332.559387,236.687561 311.157013,258.372314 289.349792,279.651184 
	C271.112549,297.446594 242.590485,297.462646 224.484543,279.492767 
	C206.625198,261.767609 189.179886,243.616058 171.047714,226.176865 
	C122.897095,179.866470 76.451790,131.847244 28.909824,84.929031 
	C27.875690,83.908470 26.436396,83.159042 26.166967,81.161583 
	C31.249472,77.812561 36.971642,76.653603 43.054806,76.654602 
	C108.545013,76.665413 174.035233,76.660362 239.525436,76.659515 
	C295.850311,76.658783 352.175201,76.657867 409.000061,76.656860 
z"/>
<path fill="#000000" opacity="1.000000" stroke="none" 
	d="
M138.895142,319.896332 
	C152.263611,306.600555 165.441147,293.626923 178.421310,280.458771 
	C181.192062,277.647888 182.850281,277.757233 185.656738,280.474335 
	C195.440643,289.946777 204.157410,300.619843 215.540207,308.327515 
	C225.850311,315.308807 237.266113,319.381226 249.743439,320.705383 
	C266.192047,322.451050 281.237549,318.461761 295.361328,310.351013 
	C302.022614,306.525665 307.693512,301.411713 313.065216,295.951477 
	C318.205536,290.726471 323.530701,285.678894 328.558411,280.349335 
	C331.051117,277.706940 332.804352,277.531372 335.459167,280.245422 
	C347.223541,292.272247 358.918640,304.384857 371.097076,315.985321 
	C409.695404,352.751862 446.619141,391.199982 484.609192,428.575287 
	C485.774109,429.721344 487.249359,430.649445 487.696289,432.793854 
	C482.560211,436.046631 476.926025,437.367279 470.840424,437.366730 
	C356.717590,437.356415 242.594757,437.374084 128.471924,437.381073 
	C99.649673,437.382843 70.827415,437.369385 42.005161,437.359314 
	C36.262337,437.357300 31.004244,435.828247 25.537031,432.292206 
	C63.727375,394.878357 100.363304,356.695984 138.895142,319.896332 
z"/>
</svg>